<svg xmlns="http://www.w3.org/2000/svg" xmlns:xlink="http://www.w3.org/1999/xlink" width="900" height="600" viewBox="0 0 11880 7920" fill="#fdce12">
	<title>Flag of Vanuatu</title>
	<defs>
		<path id="n" d="m2397 3433-41 23c7-7 93-110 49-102-45 8-99 129-101 134-10 6-20 13-31 20 9-14 97-142 49-127-50 15-89 152-90 155-11 8-21 15-33 24 7-12 83-141 31-125-53 17-71 151-72 156-11 9-23 18-35 28 4-9 69-158 21-143-48 15-60 166-61 176-12 11-25 22-37 33 5-12 63-154 8-128-56 27-50 159-49 166-12 11-23 22-35 33 2-7 41-162-4-131-45 32-36 167-36 172-11 11-22 23-33 35 1-6 39-174-7-141-47 33-32 175-31 182-12 14-25 28-37 43 1-3 49-194-7-155-54 38-32 192-31 200l-33 42c0 0 28-195-17-163-46 33-16 204-16 205-9 13-18 25-28 38 0 0 23-209-24-171-47 36-7 206-6 213-9 12-17 25-26 38 1-9 27-231-34-168-61 62 2 198 7 208l-58 92 29 19c0 0 11-27 35-70 6-2 195-46 194-92-2-45-168 50-168 50l22-34c0 0 171-39 186-94 15-53-158 50-163 52l26-36c0 0 163-53 178-102 14-47-119 28-133 36l29-38c0 0 167-39 190-96 24-58-145 44-145 44l49-60c0 0 124-13 174-66 51-52-115 4-119 5l40-40c0 0 181-22 195-65 12-39-120 4-139 10 13-12 26-25 40-37 14 0 168 0 189-44 22-46-129-7-129-7l37-30c0 0 151 3 171-33 21-35-131 2-133 2l35-25c0 0 153 8 171-31 19-39-133 3-135 3l37-25c0 0 230-24 212-61-19-37-173 36-173 36l42-24c0 0 138-59 108-96-22-28-88 60-104 87z"/>
		<mask id="m">
			<g>
				<path fill="#fff" d="m0 2640h3465v2640H0z"/>
				<use xlink:href="#n" fill="#000" stroke="#000" stroke-width="15"/>
			</g>
		</mask>
	</defs>
	<g transform="scale(660)">
		<path fill="#000" d="m0 0h18v12H0z"/>
		<path fill="#d21034" d="m0 0h18v5H9z"/>
		<path fill="#009543" d="m0 12h18V7H9z"/>
	</g>
	<path d="m5826 3740h6054v440H5826L0 7416.7v-503.4L5316 3960 0 1006.7V503.3z"/>
	<path d="m2128 2826c-692 0-1080 488-1080 1036 0 575 419 954 969 954 482 0 912-428 912-870 0-127-54-263-114-342-23-31-50-25-41 21 110 499-296 933-757 933-454 0-716-301-712-696-3-468 337-779 823-779 466 0 855 391 855 863 0 467-418 864-895 959v260c620-83 1152-597 1152-1219 0-613-520-1120-1112-1120z"/>
	<use xlink:href="#n"/>
	<g mask="url(#m)">
		<use xlink:href="#n" transform="matrix(-1,0,0,1,4070,0)" />
	</g>
</svg>
